{
  "asset": {
    "version": "2.0",
    "generator": "yope3d gen_skin_test_asset.py"
  },
  "scene": 0,
  "scenes": [
    {
      "nodes": [
        0,
        1
      ]
    }
  ],
  "nodes": [
    {
      "name": "SkinTestMesh",
      "mesh": 0,
      "skin": 0
    },
    {
      "name": "bone0",
      "translation": [
        0,
        0,
        0
      ],
      "children": [
        2
      ]
    },
    {
      "name": "bone1",
      "translation": [
        0,
        1,
        0
      ]
    }
  ],
  "skins": [
    {
      "name": "TestRig",
      "skeleton": 1,
      "joints": [
        1,
        2
      ],
      "inverseBindMatrices": 6
    }
  ],
  "meshes": [
    {
      "name": "Column",
      "primitives": [
        {
          "attributes": {
            "POSITION": 0,
            "NORMAL": 1,
            "TEXCOORD_0": 2,
            "JOINTS_0": 3,
            "WEIGHTS_0": 4
          },
          "indices": 5,
          "material": 0
        }
      ]
    }
  ],
  "materials": [
    {
      "name": "SkinTestMat",
      "pbrMetallicRoughness": {
        "baseColorFactor": [
          0.85,
          0.35,
          0.25,
          1.0
        ],
        "metallicFactor": 0.0,
        "roughnessFactor": 0.6
      }
    }
  ],
  "animations": [
    {
      "name": "bend",
      "samplers": [
        {
          "input": 7,
          "output": 8,
          "interpolation": "LINEAR"
        }
      ],
      "channels": [
        {
          "sampler": 0,
          "target": {
            "node": 2,
            "path": "rotation"
          }
        }
      ]
    }
  ],
  "accessors": [
    {
      "bufferView": 0,
      "componentType": 5126,
      "count": 32,
      "type": "VEC3",
      "min": [
        -0.25,
        0.0,
        -0.25
      ],
      "max": [
        0.25,
        2.0,
        0.25
      ]
    },
    {
      "bufferView": 1,
      "componentType": 5126,
      "count": 32,
      "type": "VEC3"
    },
    {
      "bufferView": 2,
      "componentType": 5126,
      "count": 32,
      "type": "VEC2"
    },
    {
      "bufferView": 3,
      "componentType": 5121,
      "count": 32,
      "type": "VEC4"
    },
    {
      "bufferView": 4,
      "componentType": 5126,
      "count": 32,
      "type": "VEC4"
    },
    {
      "bufferView": 5,
      "componentType": 5123,
      "count": 60,
      "type": "SCALAR"
    },
    {
      "bufferView": 6,
      "componentType": 5126,
      "count": 2,
      "type": "MAT4"
    },
    {
      "bufferView": 7,
      "componentType": 5126,
      "count": 3,
      "type": "SCALAR",
      "min": [
        0.0
      ],
      "max": [
        2.0
      ]
    },
    {
      "bufferView": 8,
      "componentType": 5126,
      "count": 3,
      "type": "VEC4"
    }
  ],
  "bufferViews": [
    {
      "buffer": 0,
      "byteOffset": 0,
      "byteLength": 384
    },
    {
      "buffer": 0,
      "byteOffset": 384,
      "byteLength": 384
    },
    {
      "buffer": 0,
      "byteOffset": 768,
      "byteLength": 256
    },
    {
      "buffer": 0,
      "byteOffset": 1024,
      "byteLength": 128
    },
    {
      "buffer": 0,
      "byteOffset": 1152,
      "byteLength": 512
    },
    {
      "buffer": 0,
      "byteOffset": 1664,
      "byteLength": 120
    },
    {
      "buffer": 0,
      "byteOffset": 1784,
      "byteLength": 128
    },
    {
      "buffer": 0,
      "byteOffset": 1912,
      "byteLength": 12
    },
    {
      "buffer": 0,
      "byteOffset": 1924,
      "byteLength": 48
    }
  ],
  "buffers": [
    {
      "byteLength": 1972,
      "uri": "data:application/octet-stream;base64,"
    }
  ]
}